<svg width="1440" height="1024" viewBox="0 0 1440 1024" fill="none" xmlns="http://www.w3.org/2000/svg">
<g clip-path="url(#clip0_10_76)">
<path d="M63.7086 119.935C61.7789 121.014 59.7481 121.243 57.6162 120.621C55.4808 119.998 53.8798 118.71 52.8134 116.756L21.7905 59.9175C20.7241 57.9637 20.4985 55.9057 21.1138 53.7436C21.7281 51.5852 23.0002 49.9662 24.9299 48.8865L50.1046 34.8012C51.0402 34.2777 52.0295 33.956 53.0725 33.8362C54.1132 33.7177 55.1329 33.8041 56.1316 34.0955L82.5524 41.8036C83.5512 42.0949 84.4599 42.5711 85.2787 43.2321C86.0988 43.8955 86.7674 44.7008 87.2844 45.6481L93.4405 56.927L86.4232 60.8532L80.6064 50.196L66.5718 58.0484C65.5776 58.6046 64.5588 58.7295 63.5152 58.4231C62.4705 58.1203 61.6735 57.4657 61.1242 56.4591L53.3684 42.2495L28.8078 55.9913L59.8308 112.83L80.8827 101.051L84.7606 108.156L63.7086 119.935ZM59.8308 112.83L28.8078 55.9913L59.8308 112.83ZM92.3716 69.2341L98.2278 70.9426L92.0966 92.2264L94.1325 95.9564L97.8166 93.8951L103.948 72.6114L109.668 74.2801L103.389 96.3422C103.232 96.8937 102.982 97.3813 102.639 97.805C102.299 98.2273 101.895 98.5694 101.427 98.8311L93.5323 103.248C93.0644 103.51 92.5581 103.561 92.0134 103.402C91.4686 103.243 91.067 102.927 90.8085 102.453L86.4459 94.4606C86.1873 93.9869 86.0249 93.4796 85.9586 92.9386C85.8911 92.3952 85.9358 91.8477 86.0927 91.2961L92.3716 69.2341ZM109.668 74.2801L92.3716 69.2341L94.6477 61.2366C94.9355 60.2254 95.5765 59.4417 96.5706 58.8855C97.5647 58.3293 98.5611 58.1969 99.5599 58.4883L109.229 61.3093C110.228 61.6006 111.002 62.2496 111.551 63.2561C112.101 64.2626 112.232 65.2715 111.944 66.2826L109.668 74.2801Z" fill="#3485C0"/>
</g>
<path d="M996.874 376.192L979.836 359.145L985.449 353.463C986.985 351.907 988.873 351.129 991.113 351.129C993.35 351.129 995.237 351.907 996.773 353.463L1002.39 359.145C1003.92 360.701 1004.72 362.579 1004.79 364.779C1004.86 366.976 1004.12 368.852 1002.59 370.408L996.874 376.192ZM991.061 382.178L948.568 425.201H931.531V407.951L974.024 364.929L991.061 382.178Z" fill="#3485C0"/>
<path d="M573.148 376.496V367.871L594.394 346.36L602.913 354.985L581.666 376.496H573.148ZM537.069 356.202V348.085H565.13V356.202H537.069ZM605.719 352.144L597.2 343.519L600.107 340.576C600.842 339.832 601.777 339.46 602.913 339.46C604.049 339.46 604.984 339.832 605.719 340.576L608.625 343.519C609.36 344.263 609.728 345.21 609.728 346.36C609.728 347.51 609.36 348.457 608.625 349.201L605.719 352.144ZM537.069 339.968V331.85H581.165V339.968H537.069ZM537.069 323.733V315.615H581.165V323.733H537.069Z" fill="#3485C0"/>
<path d="M1126.36 194.394C1124.15 194.394 1122.27 193.6 1120.7 192.012C1119.13 190.421 1118.34 188.509 1118.34 186.277V121.337C1118.34 119.105 1119.13 117.193 1120.7 115.602C1122.27 114.014 1124.15 113.219 1126.36 113.219H1174.46C1176.67 113.219 1178.55 114.014 1180.13 115.602C1181.7 117.193 1182.48 119.105 1182.48 121.337V186.277C1182.48 188.509 1181.7 190.421 1180.13 192.012C1178.55 193.6 1176.67 194.394 1174.46 194.394H1126.36ZM1126.36 186.277H1174.46V121.337H1166.44V146.197C1166.44 147.008 1166.11 147.6 1165.44 147.97C1164.77 148.344 1164.11 148.327 1163.44 147.922L1156.42 143.66L1149.41 147.922C1148.74 148.327 1148.07 148.344 1147.4 147.97C1146.73 147.6 1146.4 147.008 1146.4 146.197V121.337H1126.36V186.277ZM1146.4 121.337H1166.44H1146.4ZM1126.36 121.337H1174.46H1126.36Z" fill="#3485C0"/>
<path d="M489.231 112.813V105.914C491.436 104.966 493.692 104.256 495.998 103.783C498.302 103.309 500.723 103.072 503.262 103.072C504.999 103.072 506.703 103.208 508.373 103.478C510.043 103.749 511.68 104.087 513.284 104.493V110.987C511.68 110.378 510.061 109.922 508.425 109.619C506.787 109.313 505.066 109.161 503.262 109.161C500.723 109.161 498.284 109.483 495.946 110.126C493.607 110.768 491.369 111.663 489.231 112.813ZM489.231 135.136V128.237C491.436 127.29 493.692 126.579 495.998 126.106C498.302 125.632 500.723 125.395 503.262 125.395C504.999 125.395 506.703 125.531 508.373 125.801C510.043 126.072 511.68 126.41 513.284 126.816V133.31C511.68 132.701 510.061 132.245 508.425 131.942C506.787 131.636 505.066 131.484 503.262 131.484C500.723 131.484 498.284 131.788 495.946 132.397C493.607 133.006 491.369 133.919 489.231 135.136ZM489.231 123.975V117.075C491.436 116.128 493.692 115.418 495.998 114.944C498.302 114.471 500.723 114.234 503.262 114.234C504.999 114.234 506.703 114.369 508.373 114.64C510.043 114.91 511.68 115.249 513.284 115.654V122.148C511.68 121.54 510.061 121.084 508.425 120.781C506.787 120.475 505.066 120.322 503.262 120.322C500.723 120.322 498.284 120.644 495.946 121.288C493.607 121.929 491.369 122.825 489.231 123.975ZM459.165 137.572C462.306 137.572 465.363 137.926 468.337 138.635C471.309 139.347 474.265 140.413 477.205 141.833V101.855C474.465 100.231 471.559 99.0137 468.486 98.2019C465.412 97.3902 462.306 96.9843 459.165 96.9843C456.76 96.9843 454.372 97.2211 452.002 97.6946C449.629 98.1681 447.34 98.8784 445.135 99.8254V140.007C447.473 139.195 449.796 138.586 452.102 138.18C454.406 137.775 456.76 137.572 459.165 137.572ZM485.222 141.833C488.162 140.413 491.119 139.347 494.094 138.635C497.066 137.926 500.122 137.572 503.262 137.572C505.667 137.572 508.023 137.775 510.329 138.18C512.633 138.586 514.954 139.195 517.292 140.007V99.8254C515.088 98.8784 512.8 98.1681 510.429 97.6946C508.056 97.2211 505.667 96.9843 503.262 96.9843C500.122 96.9843 497.015 97.3902 493.941 98.2019C490.868 99.0137 487.962 100.231 485.222 101.855V141.833ZM481.214 153.807C478.007 151.236 474.532 149.241 470.791 147.82C467.049 146.399 463.174 145.689 459.165 145.689C455.624 145.689 451.916 146.366 448.041 147.719C444.166 149.071 440.525 151.168 437.117 154.01V95.1579C440.057 93.1285 443.515 91.5726 447.492 90.4903C451.466 89.408 455.357 88.8668 459.165 88.8668C463.041 88.8668 466.833 89.3742 470.542 90.3888C474.249 91.4035 477.806 92.9256 481.214 94.9549C484.621 92.9256 488.179 91.4035 491.889 90.3888C495.596 89.3742 499.387 88.8668 503.262 88.8668C507.07 88.8668 510.963 89.408 514.939 90.4903C518.913 91.5726 522.37 93.1285 525.31 95.1579V154.01C521.969 151.168 518.345 149.071 514.438 147.719C510.528 146.366 506.803 145.689 503.262 145.689C499.253 145.689 495.378 146.399 491.636 147.82C487.895 149.241 484.421 151.236 481.214 153.807Z" fill="#3485C0"/>
<path d="M1419.96 295.059L1399.91 315.352V359.999L1419.96 341.734V295.059ZM1427.97 311.294V366.087C1423.56 364.666 1418.75 364.057 1413.94 364.057C1407.13 364.057 1397.31 366.695 1391.9 370.145V315.352C1386.08 310.888 1377.66 309.264 1369.85 309.264C1362.03 309.264 1353.61 310.888 1347.8 315.352V374.813C1347.8 375.828 1348.8 376.842 1349.8 376.842C1350.2 376.842 1350.4 376.639 1350.81 376.639C1356.22 374.001 1364.03 372.175 1369.85 372.175C1377.66 372.175 1386.08 373.798 1391.9 378.263C1397.31 374.813 1407.13 372.175 1413.94 372.175C1420.56 372.175 1427.37 373.392 1432.99 376.436C1433.39 376.639 1433.59 376.639 1433.99 376.639C1434.99 376.639 1435.99 375.625 1435.99 374.61V315.352C1433.59 313.526 1430.98 312.308 1427.97 311.294ZM1383.88 365.721C1378.87 364.423 1373.86 364.057 1369.85 364.057C1365.6 364.057 1360.55 364.828 1355.82 366.087V319.939C1359.46 318.315 1364.4 317.382 1369.85 317.382C1375.3 317.382 1380.23 318.315 1383.88 319.939V365.721Z" fill="#3485C0"/>
<path d="M208.751 370.746H157.639C154.453 370.756 151.399 372.042 149.146 374.324C146.893 376.605 145.623 379.696 145.613 382.922V446.848C145.613 447.655 145.93 448.429 146.493 449C147.057 449.571 147.822 449.892 148.619 449.892H202.738C203.535 449.892 204.3 449.571 204.864 449C205.427 448.429 205.744 447.655 205.744 446.848C205.744 446.04 205.427 445.266 204.864 444.695C204.3 444.124 203.535 443.803 202.738 443.803H151.626C151.626 442.189 152.259 440.64 153.387 439.499C154.515 438.357 156.044 437.715 157.639 437.715H208.751C209.548 437.715 210.313 437.395 210.877 436.824C211.441 436.253 211.757 435.479 211.757 434.671V373.79C211.757 372.983 211.441 372.209 210.877 371.638C210.313 371.067 209.548 370.746 208.751 370.746V370.746ZM205.744 431.627H157.639C155.528 431.632 153.455 432.196 151.626 433.263V382.922C151.626 381.308 152.259 379.759 153.387 378.617C154.515 377.476 156.044 376.834 157.639 376.834H205.744V431.627Z" fill="#3485C0"/>
<g clip-path="url(#clip1_10_76)">
<path d="M1341.66 526.155L1288.17 543.325C1286.14 543.976 1284.45 545.415 1283.47 547.326C1282.49 549.237 1282.3 551.464 1282.95 553.516C1283.59 555.568 1285.01 557.278 1286.9 558.269C1288.78 559.26 1290.98 559.452 1293.01 558.801L1346.51 541.631L1362.26 591.929C1362.58 592.955 1362.48 594.068 1361.99 595.024C1361.5 595.979 1360.66 596.699 1359.65 597.024L1309.97 612.967C1305.91 614.268 1301.52 613.886 1297.74 611.903C1293.97 609.921 1291.12 606.501 1289.84 602.397L1275.3 555.969C1274.02 551.864 1274.4 547.411 1276.35 543.589C1278.31 539.766 1281.69 536.888 1285.74 535.587L1335.42 519.644C1336.43 519.318 1337.53 519.414 1338.48 519.91C1339.42 520.405 1340.13 521.26 1340.45 522.286L1341.66 526.155ZM1341.48 538.989L1291.8 554.932C1290.79 555.257 1289.69 555.162 1288.74 554.666C1287.8 554.17 1287.09 553.316 1286.77 552.289C1286.45 551.263 1286.54 550.15 1287.03 549.194C1287.52 548.239 1288.36 547.519 1289.38 547.194L1339.05 531.251L1341.48 538.989Z" fill="#3485C0"/>
</g>
<path d="M759.894 983.587L819.004 972.682L808.943 916.78C808.562 914.662 807.365 912.784 805.617 911.559C803.868 910.334 801.71 909.863 799.618 910.249L748.349 919.708C743.592 920.585 737.091 925.081 738.673 933.87L748.734 989.772C750.316 998.56 757.965 1000.45 762.722 999.568L821.879 988.653L820.442 980.667L761.332 991.573C759.501 991.861 757.2 991.531 756.622 988.316C756.043 985.102 758.081 983.971 759.894 983.587V983.587ZM759.111 934.225L794.605 927.676L796.042 935.662L760.548 942.211L759.111 934.225Z" fill="#3485C0"/>
<g clip-path="url(#clip2_10_76)">
<path d="M44.6619 809.903C42.6941 811.731 40.9422 813.451 39.2526 815.235C43.9501 814.483 48.8299 814.987 53.8344 816.817C63.382 820.311 74.3771 818.426 82.2077 812.968L79.6549 805.023L87.277 802.509L92.6706 800.732C94.989 799.969 98.1663 797.991 102.081 794.799C80.5252 787.63 62.0586 793.705 44.6584 809.901L44.6619 809.903ZM89.758 810.23L91.5119 815.686C82.4805 824.692 66.3053 830.014 51.1079 824.452C40.9667 820.742 31.6766 824.3 23.2322 835.126L16.0956 831.445C30.5864 811.589 63.2079 764.644 116.786 792.282C107.76 801.278 100.558 806.668 95.1677 808.447L89.758 810.23Z" fill="#3485C0"/>
</g>
<g clip-path="url(#clip3_10_76)">
<path d="M844.9 12.2641C789.649 36.2916 804.432 91.7051 810.241 115.683L817.601 112.482C814.781 98.9856 818.021 89.4796 827.323 83.9587C841.266 75.6868 846.778 57.8288 845.715 45.0391L838.608 43.7126L840.709 38.3815C842.811 33.0504 844.136 25.8483 844.9 12.2641Z" fill="#3485C0"/>
</g>
<path d="M1118.77 711.139C1118.77 710.34 1118.61 709.548 1118.31 708.81C1118.01 708.072 1117.56 707.402 1117 706.839L1100.2 689.831C1099.07 688.701 1097.55 688.068 1095.96 688.068C1094.37 688.068 1092.84 688.701 1091.71 689.831L1046.61 735.491C1046.03 736.076 1045.57 736.775 1045.26 737.546L1045.15 737.851C1044.95 738.478 1044.85 739.133 1044.85 739.791V756.8C1044.85 758.414 1045.48 759.963 1046.61 761.105C1047.73 762.246 1049.26 762.888 1050.86 762.888H1067.66C1068.31 762.892 1068.96 762.776 1069.57 762.545L1069.88 762.469C1070.64 762.158 1071.33 761.692 1071.9 761.1L1103.36 729.251L1104.64 734.54L1090.81 748.543C1090.24 749.12 1089.93 749.899 1089.93 750.712C1089.93 751.524 1090.24 752.303 1090.81 752.881C1091.38 753.443 1092.15 753.758 1092.95 753.758C1093.75 753.758 1094.52 753.443 1095.09 752.881L1110.13 737.66C1110.48 737.279 1110.73 736.816 1110.87 736.313C1111.01 735.809 1111.02 735.279 1110.92 734.768L1108.32 724.266L1117 715.439C1117.56 714.876 1118.01 714.206 1118.31 713.468C1118.61 712.73 1118.77 711.938 1118.77 711.139V711.139ZM1050.86 745.879L1061.64 756.8H1050.86V745.879ZM1068.9 755.544L1052.1 738.535L1083.93 706.307L1100.73 723.315L1068.9 755.544ZM1104.98 719.015L1088.18 702.007L1095.96 694.13L1112.76 711.139L1104.98 719.015Z" fill="#3485C0"/>
<path d="M351.544 669.507C358.68 666.666 357.116 658.833 353.509 653.881C349.941 648.808 345.01 645.317 340.039 641.948C336.492 639.685 333.326 636.862 330.659 633.587C329.536 632.248 327.251 629.772 329.576 629.285C331.941 628.798 336.03 631.152 338.115 632.045C341.763 633.587 345.371 635.373 348.738 637.484L352.787 630.584C346.533 626.403 338.516 622.71 331.06 621.614C326.81 620.965 322.32 621.858 320.877 626.525C319.594 630.543 321.639 634.602 323.964 637.768C329.456 645.195 337.995 648.767 344.369 655.18C345.732 656.519 347.375 658.102 348.177 659.969C349.019 661.755 348.818 661.877 346.934 661.877C341.963 661.877 335.75 657.94 331.701 655.342L327.652 662.242C333.785 666.057 344.048 672.024 351.544 669.507M388.465 614.633L365.735 637.646H356.555V628.352L379.285 605.298L388.465 614.633M402.095 611.467C402.055 612.685 400.812 613.943 399.529 615.201L389.427 625.47L385.939 621.939L396.362 611.427L393.997 609.032L391.311 611.751L382.131 602.457L390.75 593.731C391.712 592.756 393.276 592.756 394.198 593.731L399.93 599.535C400.892 600.427 400.892 602.051 399.93 603.025C399.088 603.877 398.286 604.689 398.286 605.501C398.206 606.313 399.008 607.206 399.81 607.896C400.972 609.113 402.135 610.25 402.095 611.467V611.467Z" fill="#3485C0"/>
<path d="M296.811 970.425C296.811 971.716 296.304 972.955 295.402 973.869C294.5 974.782 293.276 975.295 292 975.295C290.724 975.295 289.501 974.782 288.599 973.869C287.696 972.955 287.19 971.716 287.19 970.425C287.19 969.133 287.696 967.894 288.599 966.981C289.501 966.067 290.724 965.554 292 965.554C293.276 965.554 294.5 966.067 295.402 966.981C296.304 967.894 296.811 969.133 296.811 970.425V970.425ZM306.432 975.295C307.708 975.295 308.931 974.782 309.833 973.869C310.735 972.955 311.242 971.716 311.242 970.425C311.242 969.133 310.735 967.894 309.833 966.981C308.931 966.067 307.708 965.554 306.432 965.554C305.156 965.554 303.932 966.067 303.03 966.981C302.128 967.894 301.621 969.133 301.621 970.425C301.621 971.716 302.128 972.955 303.03 973.869C303.932 974.782 305.156 975.295 306.432 975.295V975.295ZM243.895 967.989C243.895 964.76 245.162 961.663 247.417 959.38C249.673 957.096 252.732 955.813 255.921 955.813H308.837C312.027 955.813 315.085 957.096 317.341 959.38C319.596 961.663 320.863 964.76 320.863 967.989V982.601C320.863 985.83 319.596 988.927 317.341 991.211C315.085 993.494 312.027 994.777 308.837 994.777H255.921C252.732 994.777 249.673 993.494 247.417 991.211C245.162 988.927 243.895 985.83 243.895 982.601V967.989ZM255.921 960.684C254.008 960.684 252.172 961.453 250.819 962.823C249.466 964.194 248.706 966.052 248.706 967.989V982.601C248.706 984.538 249.466 986.397 250.819 987.767C252.172 989.137 254.008 989.907 255.921 989.907H308.837C310.751 989.907 312.586 989.137 313.939 987.767C315.293 986.397 316.053 984.538 316.053 982.601V967.989C316.053 966.052 315.293 964.194 313.939 962.823C312.586 961.453 310.751 960.684 308.837 960.684H255.921Z" fill="#3485C0"/>
<g clip-path="url(#clip4_10_76)">
<path fill-rule="evenodd" clip-rule="evenodd" d="M1356.58 877.885V897.367H1360.19V884.662L1367.94 897.367H1371.84V877.885H1368.23V890.895L1360.36 877.885H1356.58ZM1361.94 903.882L1337.14 972.019C1336.35 974.199 1338.74 976.157 1340.68 974.92L1364.21 959.9L1387.74 974.92C1389.68 976.16 1392.07 974.201 1391.28 972.019L1366.47 903.832C1366.01 902.765 1365.23 902.243 1364.17 902.24C1363.11 902.237 1362.23 903.074 1361.94 903.882H1361.94ZM1361.8 918.328V955.677L1344.1 966.979L1361.8 918.328Z" fill="#3485C0"/>
</g>
<path d="M776.383 624.822H792.418V616.705H776.383V624.822ZM776.383 612.646H808.453V604.529H776.383V612.646ZM776.383 600.47H808.453V592.352H776.383V600.47ZM768.366 641.057C766.161 641.057 764.274 640.263 762.705 638.675C761.134 637.084 760.348 635.172 760.348 632.94V584.235C760.348 582.003 761.134 580.091 762.705 578.5C764.274 576.912 766.161 576.117 768.366 576.117H816.471C818.676 576.117 820.564 576.912 822.135 578.5C823.704 580.091 824.488 582.003 824.488 584.235V632.94C824.488 635.172 823.704 637.084 822.135 638.675C820.564 640.263 818.676 641.057 816.471 641.057H768.366ZM768.366 632.94H816.471V584.235H768.366V632.94ZM752.331 657.292C750.126 657.292 748.239 656.498 746.67 654.91C745.099 653.319 744.313 651.407 744.313 649.175V592.352H752.331V649.175H808.453V657.292H752.331ZM768.366 584.235V632.94V584.235Z" fill="#3485C0"/>
<defs>
<clipPath id="clip0_10_76">
<rect width="96.4922" height="97.1304" fill="white" transform="matrix(0.872691 -0.488273 0.479092 0.877765 0 53.5603)"/>
</clipPath>
<clipPath id="clip1_10_76">
<rect width="96.3204" height="97.3008" fill="white" transform="matrix(0.952166 -0.305582 0.298779 0.954322 1256.57 536.434)"/>
</clipPath>
<clipPath id="clip2_10_76">
<rect width="96.4587" height="97.1637" fill="white" transform="matrix(0.888726 0.458439 -0.449509 0.893276 45.416 746.356)"/>
</clipPath>
<clipPath id="clip3_10_76">
<rect width="96.3981" height="97.2239" fill="white" transform="matrix(0.917036 -0.398804 0.390548 0.920583 764.385 38.444)"/>
</clipPath>
<clipPath id="clip4_10_76">
<rect width="96.2103" height="97.4097" fill="white" transform="translate(1316.1 877.885)"/>
</clipPath>
</defs>
</svg>
